<mxfile host="app.diagrams.net" modified="2022-05-19T01:41:41.270Z" agent="5.0 (Windows NT 10.0; Win64; x64) AppleWebKit/537.36 (KHTML, like Gecko) Chrome/101.0.4951.67 Safari/537.36" etag="OZAFsq-21FnhqPm6_Q96" version="18.0.7" type="github">
  <diagram id="C5RBs43oDa-KdzZeNtuy" name="Page-1">
    <mxGraphModel dx="1422" dy="762" grid="1" gridSize="10" guides="1" tooltips="1" connect="1" arrows="1" fold="1" page="1" pageScale="1" pageWidth="827" pageHeight="1169" math="0" shadow="0">
      <root>
        <mxCell id="WIyWlLk6GJQsqaUBKTNV-0" />
        <mxCell id="WIyWlLk6GJQsqaUBKTNV-1" parent="WIyWlLk6GJQsqaUBKTNV-0" />
        <mxCell id="fGTzXH84DOOtUZYfCesN-73" value="Vertical Container" style="swimlane;fillColor=#B2C9AB;strokeColor=#788AA3;fontColor=#46495D;" vertex="1" parent="WIyWlLk6GJQsqaUBKTNV-1">
          <mxGeometry x="80" y="80" width="200" height="140" as="geometry" />
        </mxCell>
        <mxCell id="fGTzXH84DOOtUZYfCesN-74" value="" style="endArrow=none;html=1;rounded=0;strokeColor=#788AA3;fontColor=#46495D;" edge="1" parent="fGTzXH84DOOtUZYfCesN-73">
          <mxGeometry width="50" height="50" relative="1" as="geometry">
            <mxPoint y="49" as="sourcePoint" />
            <mxPoint x="200" y="49" as="targetPoint" />
          </mxGeometry>
        </mxCell>
        <mxCell id="fGTzXH84DOOtUZYfCesN-79" value="to_user_id" style="text;html=1;align=center;verticalAlign=middle;resizable=0;points=[];autosize=1;strokeColor=none;fillColor=none;fontColor=#46495D;" vertex="1" parent="fGTzXH84DOOtUZYfCesN-73">
          <mxGeometry x="13" y="104" width="70" height="20" as="geometry" />
        </mxCell>
        <mxCell id="fGTzXH84DOOtUZYfCesN-75" value="" style="endArrow=none;html=1;rounded=0;strokeColor=#788AA3;fontColor=#46495D;" edge="1" parent="WIyWlLk6GJQsqaUBKTNV-1">
          <mxGeometry width="50" height="50" relative="1" as="geometry">
            <mxPoint x="180" y="220" as="sourcePoint" />
            <mxPoint x="180" y="105" as="targetPoint" />
          </mxGeometry>
        </mxCell>
        <mxCell id="fGTzXH84DOOtUZYfCesN-76" value="id" style="text;html=1;align=center;verticalAlign=middle;resizable=0;points=[];autosize=1;strokeWidth=2;" vertex="1" parent="WIyWlLk6GJQsqaUBKTNV-1">
          <mxGeometry x="112" y="110" width="20" height="20" as="geometry" />
        </mxCell>
        <mxCell id="fGTzXH84DOOtUZYfCesN-77" value="integer" style="text;html=1;align=center;verticalAlign=middle;resizable=0;points=[];autosize=1;strokeColor=none;fillColor=none;fontColor=#46495D;" vertex="1" parent="WIyWlLk6GJQsqaUBKTNV-1">
          <mxGeometry x="195" y="110" width="50" height="20" as="geometry" />
        </mxCell>
        <mxCell id="fGTzXH84DOOtUZYfCesN-78" value="from_user_id" style="text;html=1;align=center;verticalAlign=middle;resizable=0;points=[];autosize=1;strokeColor=none;fillColor=none;fontColor=#46495D;" vertex="1" parent="WIyWlLk6GJQsqaUBKTNV-1">
          <mxGeometry x="83" y="145" width="90" height="20" as="geometry" />
        </mxCell>
      </root>
    </mxGraphModel>
  </diagram>
</mxfile>
